<?xml version="1.0" encoding="utf-8"?>
<!-- Generator: Adobe Illustrator 21.1.0, SVG Export Plug-In . SVG Version: 6.00 Build 0)  -->
<svg version="1.1" id="图层_1" xmlns="http://www.w3.org/2000/svg" xmlns:xlink="http://www.w3.org/1999/xlink" x="0px" y="0px"
	 viewBox="0 0 160 160" style="enable-background:new 0 0 160 160;" xml:space="preserve">
<path class="st0" d="M80,0C42.9,0,12.7,30.1,12.7,67.3c0,36.8,29.5,66.7,66.2,67.3l0.4,25.4c0,0,27.1-15,52.2-49.4
	c9.8-11.7,15.8-26.8,15.8-43.3C147.3,30.2,117.2,0,80,0z M87.2,109.5H70.7V93.3h16.6V109.5L87.2,109.5z M92.7,71.7
	c-5,3.3-7.1,7-6.6,11.2v4.4H71.8v-4.7c-0.3-8.4,3.7-15.6,11.8-21.5c6.7-4.6,9.7-9.6,9-14.8c-0.7-6-4.2-9.2-10.4-9.6
	c-0.4,0-0.9,0-1.3,0c-8.1,0-12.8,4.5-14.5,13.8l-0.2,1.2L52,46.8l0.2-0.9c3.5-16.1,13.9-24,30.8-23.5c15.2,0.8,23.6,8.9,24.9,24v0.1
	C108.3,55.8,103.1,64.2,92.7,71.7L92.7,71.7z"/>
</svg>
